<svg xmlns="http://www.w3.org/2000/svg" viewBox="0 0 64 64"><defs><style>.cls-1{fill:#231f20;}</style></defs><g id="smart_plug" data-name="smart plug"><path class="cls-1" d="M45,21.71H19a1,1,0,0,0-1,1V35.46a13.86,13.86,0,0,0,13,13.7V60a1,1,0,0,0,2,0V49.16a13.86,13.86,0,0,0,13-13.7V22.7A1,1,0,0,0,45,21.71ZM32,41.36a2,2,0,1,1,2-2A2,2,0,0,1,32,41.36Zm4.22-4.12a1,1,0,0,1-.59.19,1,1,0,0,1-.81-.4,3.65,3.65,0,0,0-2.91-1.57,3.69,3.69,0,0,0-2.78,1.37,1,1,0,0,1-1.41.12,1,1,0,0,1-.11-1.39,5.52,5.52,0,0,1,8.83.3A1,1,0,0,1,36.22,37.24Zm2.9-3a1,1,0,0,1-.66.24,1,1,0,0,1-.75-.33A7.75,7.75,0,0,0,26.27,34a1,1,0,0,1-1.41,0,1,1,0,0,1,0-1.39,9.72,9.72,0,0,1,7.09-3,9.88,9.88,0,0,1,7.3,3.28A1,1,0,0,1,39.12,34.24Z"/><path class="cls-1" d="M40,6A3,3,0,0,0,37,9V22.7a1,1,0,0,0,1,1h4a1,1,0,0,0,1-1V9A3,3,0,0,0,40,6Z"/><path class="cls-1" d="M24,6A3,3,0,0,0,21,9V22.7a1,1,0,0,0,1,1h4a1,1,0,0,0,1-1V9A3,3,0,0,0,24,6Z"/><path class="cls-1" d="M48,23.68H16a1,1,0,1,1,0-2H48a1,1,0,1,1,0,2Z"/></g></svg>